<svg width="80" height="80" viewBox="0 0 80 80" fill="none" xmlns="http://www.w3.org/2000/svg">
<path d="M65.6 6.39999H14.4C9.984 6.39999 6.4 9.98399 6.4 14.4V65.6C6.4 70.016 9.984 73.6 14.4 73.6H65.6C70.016 73.6 73.6 70.016 73.6 65.6V14.4C73.6 9.98399 70.016 6.39999 65.6 6.39999ZM27.2 32V62.4H17.6V32H27.2ZM17.6 23.152C17.6 20.912 19.52 19.2 22.4 19.2C25.28 19.2 27.088 20.912 27.2 23.152C27.2 25.392 25.408 27.2 22.4 27.2C19.52 27.2 17.6 25.392 17.6 23.152ZM62.4 62.4H52.8C52.8 62.4 52.8 47.584 52.8 46.4C52.8 43.2 51.2 40 47.2 39.936H47.072C43.2 39.936 41.6 43.232 41.6 46.4C41.6 47.856 41.6 62.4 41.6 62.4H32V32H41.6V36.096C41.6 36.096 44.688 32 50.896 32C57.248 32 62.4 36.368 62.4 45.216V62.4Z" fill="#D8D6D0"/>
</svg>
