<svg width="80" height="80" viewBox="0 0 80 80" fill="none" xmlns="http://www.w3.org/2000/svg">
<path d="M22.4 6.4C13.5819 6.4 6.4 13.5819 6.4 22.4V57.6C6.4 66.4181 13.5819 73.6 22.4 73.6H57.6C66.4181 73.6 73.6 66.4181 73.6 57.6V22.4C73.6 13.5819 66.4181 6.4 57.6 6.4H22.4ZM20.8 25.6H59.2C59.488 25.6 59.7596 25.6325 60.0156 25.7125L44.2875 41.425C41.9195 43.793 38.0649 43.793 35.6969 41.425L19.9844 25.7125C20.2404 25.6325 20.512 25.6 20.8 25.6ZM17.7125 27.9844L29.7438 40L17.7125 52.0156C17.6325 51.7596 17.6 51.488 17.6 51.2V28.8C17.6 28.512 17.6325 28.2404 17.7125 27.9844ZM62.2875 27.9844C62.3675 28.2404 62.4 28.512 62.4 28.8V51.2C62.4 51.488 62.3675 51.7596 62.2875 52.0156L50.2406 40L62.2875 27.9844ZM32 42.2562L33.425 43.6969C35.233 45.5049 37.6164 46.4 39.9844 46.4C42.3684 46.4 44.7357 45.5049 46.5437 43.6969L47.9844 42.2562L60.0156 54.2875C59.7596 54.3675 59.488 54.4 59.2 54.4H20.8C20.512 54.4 20.2404 54.3675 19.9844 54.2875L32 42.2562Z" fill="#D8D6D0"/>
</svg>
